HIERARCHY
ROOT Hips
{
     OFFSET -13.76600 97.16430 46.19240
     CHANNELS 6 Xposition Yposition Zposition Zrotation Xrotation Yrotation
     JOINT Spine
     {
          OFFSET -0.00000 11.89050 -0.00000
          CHANNELS 3 Zrotation Xrotation Yrotation
          JOINT Spine1
          {
               OFFSET -0.00000 25.65740 0.12766
               CHANNELS 3 Zrotation Xrotation Yrotation
               JOINT HEad
               {
                    OFFSET -0.00000 8.73416 0.01134
                    CHANNELS 3 Zrotation Xrotation Yrotation
                    End Site
                    {
                         OFFSET -0.29000 12.77420 2.51395
                    }
               }
               JOINT LeftShoulder1
               {
                    OFFSET 8.99000 -0.36225 -0.22000
                    CHANNELS 3 Zrotation Xrotation Yrotation
                    JOINT LeftArm
                    {
                         OFFSET 10.28270 -0.00338 0.32212
                         CHANNELS 3 Zrotation Xrotation Yrotation
                         JOINT LeftForeArm
                         {
                              OFFSET 32.76690 0.09914 -1.42434
                              CHANNELS 3 Zrotation Xrotation Yrotation
                              JOINT LeftHand
                              {
                                   OFFSET 27.56430 0.08536 1.02216
                                   CHANNELS 3 Zrotation Xrotation Yrotation
                                   End Site
                                   {
                                        OFFSET 16.74430 -0.60000 1.50291
                                   }
                              }
                         }
                    }
               }
               JOINT RightShoulder
               {
                    OFFSET -8.99000 -0.36225 -0.22000
                    CHANNELS 3 Zrotation Xrotation Yrotation
                    JOINT RightArm
                    {
                         OFFSET -10.28270 -0.00338 0.32212
                         CHANNELS 3 Zrotation Xrotation Yrotation
                         JOINT RightForeArm
                         {
                              OFFSET -32.89710 0.09914 -1.42434
                              CHANNELS 3 Zrotation Xrotation Yrotation
                              JOINT RightHand
                              {
                                   OFFSET -27.49210 0.08536 1.02216
                                   CHANNELS 3 Zrotation Xrotation Yrotation
                                   End Site
                                   {
                                        OFFSET -16.63120 -0.60000 1.50291
                                   }
                              }
                         }
                    }
               }
          }
     }
     JOINT LeftUpLeg
     {
          OFFSET 8.94580 -8.66707 0.10165
          CHANNELS 3 Zrotation Xrotation Yrotation
          JOINT LeftLeg
          {
               OFFSET -0.00000 -44.42270 1.37270
               CHANNELS 3 Zrotation Xrotation Yrotation
               JOINT LeftFoot
               {
                    OFFSET -0.25355 -42.09240 -1.46059
                    CHANNELS 3 Zrotation Xrotation Yrotation
                    JOINT LeftToes
                    {
                         OFFSET -0.04000 -4.41509 8.49910
                         CHANNELS 3 Zrotation Xrotation Yrotation
                         End Site
                         {
                              OFFSET 0.08000 -0.04745 9.77979
                         }
                    }
               }
          }
     }
     JOINT RightUpLeg
     {
          OFFSET -8.94580 -8.66707 0.10165
          CHANNELS 3 Zrotation Xrotation Yrotation
          JOINT RightLeg
          {
               OFFSET 0.00000 -44.42270 1.37270
               CHANNELS 3 Zrotation Xrotation Yrotation
               JOINT RightFoot
               {
                    OFFSET 0.25355 -42.09240 -1.46059
                    CHANNELS 3 Zrotation Xrotation Yrotation
                    JOINT RightToes
                    {
                         OFFSET 0.04000 -4.41509 8.49910
                         CHANNELS 3 Zrotation Xrotation Yrotation
                         End Site
                         {
                              OFFSET -0.08000 -0.13745 9.77979
                         }
                    }
               }
          }
     }
}
MOTION
Frames: 19
Frame Time: 0.01667
-37.92320 98.53720 53.83460 -1.77318 0.23144 -49.71170 1.38113 3.65991 1.31711 5.30630 7.13809 1.84978 -9.27099 -2.16260 20.27480 -0.00000 -0.00000 0.00000 -150.00101 -39.38860 -123.88800 -3.22699 60.09960 -114.66200 37.79820 4.25974 -12.49990 0.88850 0.91051 13.16460 94.37220 1.94217 77.00320 7.32810 38.78270 98.24810 -26.30360 10.99350 -9.21648 10.43000 -10.79030 -18.46080 -5.20654 18.96570 31.64150 -26.72440 -0.91221 1.59309 9.59019 -9.67801 -64.58260 -13.01930 8.94607 -18.90100 -0.91547 16.80890 1.13907 21.10680 -3.11101 -0.99176 1.52879 -16.57580 36.91080 
-37.69720 98.52200 53.91260 -1.99510 0.02388 -49.69850 1.46556 3.76061 1.26788 5.41690 7.33946 1.74305 -9.29775 -1.77919 20.50430 -0.00000 -0.00000 0.00000 -149.06500 -39.52850 -123.12300 -2.66435 59.81120 -114.97500 37.53470 4.37538 -12.28680 0.92587 0.92349 13.31820 94.22920 1.96040 76.91710 7.46577 38.62310 97.55860 -26.19970 10.96830 -9.12344 10.36410 -10.67870 -18.58750 -5.51692 19.12500 31.79870 -26.44860 -0.89857 1.57907 9.46977 -10.03070 -64.63600 -13.13590 9.11050 -18.78630 -1.01870 16.89850 1.16604 20.92420 -2.84101 -1.03226 1.72974 -17.03560 36.78730 
-37.41790 98.49760 53.94210 -2.21732 -0.21725 -49.63500 1.55673 3.84312 1.18486 5.51647 7.50446 1.57746 -9.22157 -1.64938 20.78520 -0.00000 -0.00000 0.00000 -148.12399 -39.67080 -122.44500 -1.97978 59.47140 -115.40000 37.27710 4.48085 -12.09750 0.95964 0.92598 13.28030 93.98770 2.12998 76.83170 7.71147 38.38490 96.77510 -26.13880 10.93660 -8.99278 10.31450 -10.62850 -18.72360 -5.93665 19.30530 31.98320 -26.14660 -0.85465 1.57018 9.36084 -10.35860 -64.71540 -13.25070 9.16329 -18.73230 -1.24758 17.17350 1.22310 20.83190 -2.60055 -1.07078 1.93161 -17.49730 36.72360 
-37.07840 98.46360 53.92390 -2.45614 -0.45958 -49.55460 1.64692 3.90575 1.04906 5.63475 7.62615 1.30708 -9.13269 -1.70410 21.04800 -0.00000 -0.00000 0.00000 -147.35001 -39.84220 -121.98700 -1.24876 59.11960 -115.89000 37.06620 4.56531 -11.94570 0.95192 0.92153 13.21520 93.74280 2.29521 76.80200 7.96654 38.15980 96.03060 -26.11220 10.91310 -8.89152 10.30320 -10.64980 -18.80410 -6.41605 19.53470 32.14770 -25.85000 -0.79853 1.56413 9.27809 -10.61200 -64.79280 -13.34200 9.09874 -18.76690 -1.59733 17.60140 1.38590 20.84260 -2.35036 -1.11554 2.14298 -17.97820 36.72600 
-36.67380 98.42060 53.86570 -2.73406 -0.67204 -49.48750 1.72610 3.95811 0.84699 5.79583 7.71978 0.89534 -8.99010 -1.97834 21.26530 -0.00000 -0.00000 0.00000 -146.91299 -40.05980 -121.86000 -0.62011 58.85430 -116.35300 36.96050 4.61741 -11.83950 0.89214 0.91649 13.26990 93.59620 2.34322 76.87460 8.13238 38.04080 95.42840 -26.11310 10.90180 -8.84057 10.34270 -10.73370 -18.76960 -6.88401 19.82260 32.25170 -25.53090 -0.70723 1.56409 9.19229 -10.86040 -64.83270 -13.39600 8.94692 -18.89260 -2.02235 18.11070 1.69293 20.95860 -2.07847 -1.16948 2.34578 -18.43510 36.79050 
-36.20270 98.37180 53.77840 -3.07062 -0.83868 -49.46890 1.78967 4.01368 0.57371 6.00769 7.81023 0.32715 -8.66170 -2.55742 21.44270 -0.00000 -0.00000 0.00000 -146.88400 -40.33680 -122.10100 -0.31198 58.77420 -116.61500 36.99490 4.62648 -11.79620 0.81003 0.91969 13.54360 93.59120 2.23801 77.06420 8.17235 38.05250 95.00720 -26.12080 10.89790 -8.82130 10.44110 -10.85040 -18.61620 -7.30716 20.15180 32.31940 -25.13350 -0.55639 1.57133 9.06798 -11.19550 -64.81430 -13.41780 8.75302 -19.04270 -2.44473 18.62560 2.10209 21.17850 -1.80633 -1.22950 2.49597 -18.76800 36.90060 
-35.66460 98.32250 53.67250 -3.47545 -0.95368 -49.53040 1.84944 4.07865 0.23462 6.27197 7.91090 -0.38446 -8.06837 -3.41372 21.59050 -0.00000 -0.00000 0.00000 -147.20500 -40.66800 -122.65100 -0.48439 58.89240 -116.51100 37.12320 4.58859 -11.84930 0.75593 0.93780 14.04150 93.69200 2.01182 77.34110 8.10393 38.15110 94.75250 -26.09910 10.89390 -8.80739 10.61360 -10.97250 -18.40710 -7.72052 20.49090 32.44040 -24.63040 -0.36319 1.57946 8.91060 -11.61200 -64.76610 -13.41910 8.54844 -19.11870 -2.78460 19.09530 2.52339 21.46240 -1.55189 -1.29090 2.56504 -18.91610 37.01680 
-35.05810 98.27930 53.55440 -3.94695 -1.01754 -49.68480 1.92357 4.14802 -0.15438 6.59034 8.01423 -1.20162 -7.23969 -4.37104 21.72810 -0.00000 -0.00000 0.00000 -147.74001 -41.02190 -123.37200 -1.11431 59.13930 -116.00900 37.25420 4.51117 -12.01830 0.78174 0.97322 14.66130 93.79890 1.73156 77.64420 8.01451 38.27870 94.58900 -26.04510 10.88340 -8.76974 10.87310 -11.08590 -18.25080 -8.19416 20.80050 32.72490 -24.04620 -0.16831 1.58069 8.76326 -12.00810 -64.74250 -13.40600 8.34534 -19.06600 -2.99962 19.49560 2.89008 21.75010 -1.30904 -1.35168 2.55370 -18.88570 37.09440 
-34.37870 98.24710 53.42680 -4.48422 -1.04452 -49.94100 2.02452 4.21683 -0.56786 6.96096 8.11244 -2.06873 -6.27672 -5.20603 21.87100 -0.00000 -0.00000 0.00000 -148.30600 -41.36230 -124.08400 -1.98315 59.40380 -115.26300 37.33280 4.41487 -12.26660 0.90528 1.02188 15.24670 93.79810 1.47546 77.91210 8.02974 38.38570 94.41120 -26.00890 10.86510 -8.69305 11.20760 -11.17300 -18.24540 -8.76649 21.05260 33.25360 -23.44680 0.00417 1.57438 8.67003 -12.26740 -64.75940 -13.38550 8.14756 -18.88160 -3.09903 19.82550 3.19033 22.02530 -1.06633 -1.41295 2.46686 -18.68920 37.12410 
-33.62010 98.22900 53.28830 -5.09215 -1.06806 -50.32990 2.14863 4.29177 -0.97619 7.36773 8.22071 -2.92579 -5.28942 -5.76960 22.00240 -0.00000 -0.00000 0.00000 -148.71201 -41.67300 -124.64100 -2.73929 59.55840 -114.56500 37.36690 4.32958 -12.50270 1.09279 1.07298 15.66930 93.60850 1.31949 78.10970 8.20807 38.41620 94.15090 -26.03480 10.84170 -8.58240 11.57560 -11.19010 -18.42310 -9.41178 21.22760 34.05250 -22.89490 0.16759 1.56789 8.64715 -12.33610 -64.78250 -13.36870 7.95701 -18.59800 -3.14598 20.09150 3.47990 22.30180 -0.80894 -1.47828 2.31364 -18.34500 37.13140 
-32.77850 98.22760 53.13650 -5.76962 -1.11293 -50.90310 2.27930 4.38153 -1.35570 7.78068 8.35848 -3.72629 -4.35357 -6.02477 22.09110 -0.00000 -0.00000 0.00000 -148.85001 -41.96280 -125.01800 -3.05187 59.51650 -114.20500 37.38290 4.28058 -12.63970 1.29386 1.11702 15.90230 93.18960 1.29334 78.23580 8.52592 38.31770 93.78170 -26.12440 10.81290 -8.43714 11.93380 -11.08820 -18.73310 -10.05410 21.30700 35.08510 -22.42810 0.34735 1.56912 8.68532 -12.22710 -64.76440 -13.34580 7.76140 -18.29790 -3.25911 20.27620 3.89588 22.55880 -0.49717 -1.55407 2.13148 -17.93530 37.13330 
-31.85740 98.24500 52.97360 -6.49305 -1.16366 -51.70640 2.40166 4.47818 -1.69768 8.17257 8.51273 -4.45073 -3.51754 -5.99074 22.14410 -0.00000 -0.00000 0.00000 -148.76700 -42.26380 -125.33700 -2.87209 59.29850 -114.23200 37.36880 4.27134 -12.67390 1.46813 1.15231 16.04230 92.56810 1.33313 78.30840 8.94192 38.09270 93.28920 -26.24940 10.77500 -8.24604 12.25740 -10.85370 -19.06800 -10.59140 21.28070 36.25920 -22.08440 0.54900 1.58210 8.77410 -11.95930 -64.67530 -13.28430 7.52601 -18.08290 -3.54660 20.32680 4.59193 22.72540 -0.07007 -1.64745 1.97901 -17.59240 37.11810 
-30.86480 98.28210 52.80590 -7.21882 -1.18298 -52.75950 2.51120 4.56056 -2.00859 8.52688 8.64407 -5.10608 -2.84171 -5.69779 22.22480 -0.00000 -0.00000 0.00000 -148.59700 -42.61770 -125.75900 -2.47001 59.01170 -114.44200 37.29390 4.28517 -12.66970 1.57604 1.18061 16.23500 91.86250 1.31797 78.34820 9.39337 37.82090 92.67590 -26.36260 10.72540 -8.00664 12.53750 -10.50340 -19.33460 -10.94500 21.12880 37.49380 -21.89100 0.76639 1.60822 8.91184 -11.53580 -64.52110 -13.16960 7.21918 -18.00920 -4.02129 20.17080 5.64519 22.72420 0.51922 -1.76121 1.89781 -17.41060 37.06530 
-29.80910 98.33790 52.63730 -7.90696 -1.14893 -54.04890 2.61027 4.61464 -2.30177 8.83571 8.72642 -5.71335 -2.39186 -5.20656 22.42060 -0.00000 -0.00000 0.00000 -148.43401 -43.05260 -126.37900 -2.11831 58.74600 -114.65200 37.17060 4.30946 -12.65810 1.57119 1.19858 16.55430 91.22080 1.18561 78.38290 9.76602 37.59980 91.98900 -26.42110 10.66970 -7.74938 12.78250 -10.05370 -19.52500 -11.12230 20.80470 38.78820 -21.82750 0.98300 1.64356 9.10633 -10.93600 -64.32210 -13.01270 6.84495 -18.09500 -4.61996 19.73190 7.05947 22.52670 1.26264 -1.88877 1.87963 -17.37240 36.96050 
-28.69630 98.40700 52.46150 -8.53261 -1.05208 -55.53140 2.69844 4.63772 -2.58499 9.10129 8.75384 -6.28743 -2.17193 -4.62216 22.79950 -0.00000 -0.00000 0.00000 -148.28799 -43.56730 -127.19400 -1.88773 58.51630 -114.83000 37.03330 4.34660 -12.61490 1.43006 1.19762 16.93530 90.59220 1.08257 78.43480 9.86020 37.27680 91.38510 -26.35680 10.62660 -7.56575 13.02430 -9.53730 -19.70910 -11.21110 20.27030 40.18720 -21.84210 1.15516 1.67666 9.37677 -10.09330 -64.06140 -12.81750 6.42890 -18.34740 -5.25749 18.95560 8.78688 22.16990 2.07130 -2.01191 1.86076 -17.33430 36.78210 
-27.53110 98.47750 52.26250 -9.07648 -0.87794 -57.15400 2.76657 4.62462 -2.85086 9.33222 8.71395 -6.81683 -2.10102 -4.05810 23.38020 -0.00000 -0.00000 0.00000 -148.16000 -44.13240 -128.17200 -1.73736 58.32490 -114.99500 36.88120 4.39905 -12.53270 1.20100 1.17585 17.22570 89.95120 1.13934 78.54690 9.68344 36.81980 90.90350 -26.14750 10.60790 -7.50904 13.29680 -9.02622 -19.93760 -11.28450 19.55180 41.69760 -21.88200 1.25035 1.69754 9.72304 -8.97748 -63.69180 -12.57740 5.97856 -18.72410 -5.82249 17.84690 10.68240 21.73360 2.79543 -2.10672 1.75290 -17.09460 36.48550 
-26.31930 98.53090 52.01990 -9.52269 -0.61813 -58.87020 2.79571 4.56661 -3.07852 9.53563 8.58747 -7.26499 -2.08021 -3.60272 24.12540 -0.00000 -0.00000 0.00000 -148.09000 -44.69710 -129.30499 -1.60186 58.21170 -115.16200 36.69810 4.46166 -12.43420 0.98574 1.14394 17.30490 89.34370 1.33108 78.77130 9.47443 36.37550 90.42580 -25.82310 10.60210 -7.52501 13.59980 -8.60928 -20.17630 -11.32670 18.75370 43.25850 -21.89900 1.30874 1.70977 10.09040 -7.71498 -63.18930 -12.29060 5.48240 -19.13640 -6.19919 16.48850 12.48670 21.34550 3.29405 -2.16005 1.49626 -16.50720 36.01870 
-25.06910 98.54540 51.71380 -9.86792 -0.28570 -60.62230 2.76509 4.46192 -3.24711 9.72234 8.36904 -7.59701 -2.05720 -3.31387 24.93460 -0.00000 -0.00000 0.00000 -148.10800 -45.19490 -130.59599 -1.44712 58.22370 -115.32400 36.49200 4.52583 -12.34100 0.86048 1.11560 17.16740 88.69800 1.57489 79.12560 9.38960 35.93320 89.90540 -25.41340 10.58910 -7.51950 13.90210 -8.36923 -20.36130 -11.27760 18.03620 44.77220 -21.89950 1.40104 1.72698 10.41520 -6.47926 -62.56590 -11.95890 4.93269 -19.55510 -6.33434 15.04600 13.84670 21.17910 3.50269 -2.18093 1.10394 -15.58040 35.40050 
-23.79120 98.50230 51.32800 -10.12490 0.08846 -62.32250 2.67131 4.31681 -3.35070 9.91154 8.06885 -7.80545 -1.99485 -3.20224 25.67560 -0.00000 -0.00000 0.00000 -148.19600 -45.56780 -132.02699 -1.34435 58.38520 -115.40300 36.27620 4.58060 -12.28000 0.84357 1.10072 16.93700 88.02310 1.68119 79.60220 9.50239 35.55220 89.34930 -25.01100 10.55850 -7.42963 14.17720 -8.37075 -20.46890 -11.11400 17.55490 46.14700 -21.98400 1.54007 1.75986 10.70000 -5.27726 -61.86920 -11.60210 4.31948 -20.04660 -6.23917 13.82100 14.29220 21.36580 3.43130 -2.18681 0.65482 -14.48310 34.80220 
